<?xml version="1.0" encoding="utf-8"?>
<!-- Generator: Adobe Illustrator 23.0.6, SVG Export Plug-In . SVG Version: 6.00 Build 0)  -->
<svg version="1.1" id="Layer_1" xmlns="http://www.w3.org/2000/svg" xmlns:xlink="http://www.w3.org/1999/xlink" x="0px" y="0px"
	 viewBox="0 0 500 500" style="enable-background:new 0 0 500 500;" xml:space="preserve">
<style type="text/css">
	.st0{fill:#FFFFFF;}
	.st1{fill:#848484;}
	.st2{fill:#334251;}
</style>
<path class="st0" d="M410.4,494.9H89.6C43,494.9,5.1,457,5.1,410.4V89.6C5.1,43,43,5.1,89.6,5.1h320.7c46.7,0,84.5,37.8,84.5,84.5
	v320.7C494.9,457,457,494.9,410.4,494.9z"/>
<g>
	<path class="st1" d="M332.5,86.9h27.3c50.4,0,110.3,18,110.3,83.9c0,36-21.6,59.9-54,69.5v1.2c38.4,6,67.1,33.6,67.1,75.5
		c1.2,70.7-61.1,95.9-123.5,95.9h-16.5l-54.9-64.7H349c25.2,0,55.1-7.2,55.1-39.6c2.4-25.2-21.6-34.8-55.1-34.8H226l-31.3-37.2
		l18.7-20.4h134.4c28.8,0,46.8-13.2,46.8-34.8c0-24-15.6-32.4-49.2-32.4h-70.2L332.5,86.9z"/>
	<path class="st2" d="M222.5,411.9L101.4,260.8h-1.2v149.9H23.5V86.9h76.7v131.9h1.2L217.7,86.9H316L178.2,236.8l148.7,176.2H222.5
		V411.9z"/>
</g>
</svg>
